<svg width="26" height="12" viewBox="0 0 26 12" fill="none" xmlns="http://www.w3.org/2000/svg">
<path d="M5.94434 6.3125C5.66113 6.64941 5.32178 6.92041 4.92627 7.12549C4.53564 7.33057 4.10596 7.43311 3.63721 7.43311C3.02197 7.43311 2.48486 7.28174 2.02588 6.979C1.57178 6.67627 1.22021 6.25146 0.971191 5.70459C0.722168 5.15283 0.597656 4.54492 0.597656 3.88086C0.597656 3.16797 0.731934 2.52588 1.00049 1.95459C1.27393 1.3833 1.65967 0.946289 2.15771 0.643555C2.65576 0.34082 3.23682 0.189453 3.90088 0.189453C4.95557 0.189453 5.78564 0.584961 6.39111 1.37598C7.00146 2.16211 7.30664 3.23633 7.30664 4.59863V4.99414C7.30664 7.06934 6.89648 8.58545 6.07617 9.54248C5.25586 10.4946 4.01807 10.9829 2.36279 11.0073H2.09912V9.86475H2.38477C3.50293 9.84521 4.3623 9.55469 4.96289 8.99316C5.56348 8.42676 5.89062 7.5332 5.94434 6.3125ZM3.85693 6.3125C4.31104 6.3125 4.72852 6.17334 5.10938 5.89502C5.49512 5.6167 5.77588 5.27246 5.95166 4.8623V4.32031C5.95166 3.43164 5.75879 2.70898 5.37305 2.15234C4.9873 1.5957 4.49902 1.31738 3.9082 1.31738C3.3125 1.31738 2.83398 1.54687 2.47266 2.00586C2.11133 2.45996 1.93066 3.06055 1.93066 3.80762C1.93066 4.53516 2.104 5.13574 2.45068 5.60938C2.80225 6.07812 3.271 6.3125 3.85693 6.3125ZM9.26953 10.2896C9.26953 10.0552 9.33789 9.85986 9.47461 9.70361C9.61621 9.54736 9.82617 9.46924 10.1045 9.46924C10.3828 9.46924 10.5928 9.54736 10.7344 9.70361C10.8809 9.85986 10.9541 10.0552 10.9541 10.2896C10.9541 10.5142 10.8809 10.7021 10.7344 10.8535C10.5928 11.0049 10.3828 11.0806 10.1045 11.0806C9.82617 11.0806 9.61621 11.0049 9.47461 10.8535C9.33789 10.7021 9.26953 10.5142 9.26953 10.2896ZM9.27686 3.82227C9.27686 3.58789 9.34521 3.39258 9.48193 3.23633C9.62354 3.08008 9.8335 3.00195 10.1118 3.00195C10.3901 3.00195 10.6001 3.08008 10.7417 3.23633C10.8882 3.39258 10.9614 3.58789 10.9614 3.82227C10.9614 4.04688 10.8882 4.23486 10.7417 4.38623C10.6001 4.5376 10.3901 4.61328 10.1118 4.61328C9.8335 4.61328 9.62354 4.5376 9.48193 4.38623C9.34521 4.23486 9.27686 4.04688 9.27686 3.82227ZM18.5273 7.41846H20.0068V8.52441H18.5273V11H17.165V8.52441H12.3091V7.72607L17.0845 0.335938H18.5273V7.41846ZM13.8472 7.41846H17.165V2.18896L17.0039 2.48193L13.8472 7.41846ZM25.6831 11H24.3208V1.96924L21.5889 2.97266V1.74219L25.4707 0.284668H25.6831V11Z" fill="black"/>
</svg>
