<svg width="82" height="21" viewBox="0 0 82 21" fill="none" xmlns="http://www.w3.org/2000/svg">
<path d="M8.71875 11.085H3.17285V15.6201H9.61523V17H1.48535V4.20312H9.52734V5.5918H3.17285V9.70508H8.71875V11.085ZM12.999 7.49023L13.0518 8.68555C13.7783 7.77148 14.7275 7.31445 15.8994 7.31445C17.9092 7.31445 18.9229 8.44824 18.9404 10.7158V17H17.3145V10.707C17.3086 10.0215 17.1504 9.51465 16.8398 9.18652C16.5352 8.8584 16.0576 8.69434 15.4072 8.69434C14.8799 8.69434 14.417 8.83496 14.0186 9.11621C13.6201 9.39746 13.3096 9.7666 13.0869 10.2236V17H11.4609V7.49023H12.999ZM21.0059 12.166C21.0059 10.6836 21.3486 9.50586 22.0342 8.63281C22.7197 7.75391 23.6279 7.31445 24.7588 7.31445C25.9189 7.31445 26.8242 7.72461 27.4746 8.54492L27.5537 7.49023H29.0391V16.7715C29.0391 18.002 28.6729 18.9717 27.9404 19.6807C27.2139 20.3896 26.2354 20.7441 25.0049 20.7441C24.3193 20.7441 23.6484 20.5977 22.9922 20.3047C22.3359 20.0117 21.835 19.6104 21.4893 19.1006L22.333 18.125C23.0303 18.9863 23.8828 19.417 24.8906 19.417C25.6816 19.417 26.2969 19.1943 26.7363 18.749C27.1816 18.3037 27.4043 17.6768 27.4043 16.8682V16.0508C26.7539 16.8008 25.8662 17.1758 24.7412 17.1758C23.6279 17.1758 22.7256 16.7275 22.0342 15.8311C21.3486 14.9346 21.0059 13.7129 21.0059 12.166ZM22.6406 12.3506C22.6406 13.4229 22.8604 14.2666 23.2998 14.8818C23.7393 15.4912 24.3545 15.7959 25.1455 15.7959C26.1709 15.7959 26.9238 15.3301 27.4043 14.3984V10.0566C26.9062 9.14844 26.1592 8.69434 25.1631 8.69434C24.3721 8.69434 23.7539 9.00195 23.3086 9.61719C22.8633 10.2324 22.6406 11.1436 22.6406 12.3506ZM33.2666 17H31.6406V3.5H33.2666V17ZM37.6436 17H36.0176V7.49023H37.6436V17ZM35.8857 4.96777C35.8857 4.7041 35.9648 4.48145 36.123 4.2998C36.2871 4.11816 36.5273 4.02734 36.8438 4.02734C37.1602 4.02734 37.4004 4.11816 37.5645 4.2998C37.7285 4.48145 37.8105 4.7041 37.8105 4.96777C37.8105 5.23145 37.7285 5.45117 37.5645 5.62695C37.4004 5.80273 37.1602 5.89062 36.8438 5.89062C36.5273 5.89062 36.2871 5.80273 36.123 5.62695C35.9648 5.45117 35.8857 5.23145 35.8857 4.96777ZM45.791 14.4775C45.791 14.0381 45.624 13.6982 45.29 13.458C44.9619 13.2119 44.3848 13.001 43.5586 12.8252C42.7383 12.6494 42.085 12.4385 41.5986 12.1924C41.1182 11.9463 40.7607 11.6533 40.5264 11.3135C40.2979 10.9736 40.1836 10.5693 40.1836 10.1006C40.1836 9.32129 40.5117 8.66211 41.168 8.12305C41.8301 7.58398 42.6738 7.31445 43.6992 7.31445C44.7773 7.31445 45.6504 7.59277 46.3184 8.14941C46.9922 8.70605 47.3291 9.41797 47.3291 10.2852H45.6943C45.6943 9.83984 45.5039 9.45605 45.123 9.13379C44.748 8.81152 44.2734 8.65039 43.6992 8.65039C43.1074 8.65039 42.6445 8.7793 42.3105 9.03711C41.9766 9.29492 41.8096 9.63184 41.8096 10.0479C41.8096 10.4404 41.9648 10.7363 42.2754 10.9355C42.5859 11.1348 43.1455 11.3252 43.9541 11.5068C44.7686 11.6885 45.4277 11.9053 45.9316 12.1572C46.4355 12.4092 46.8076 12.7139 47.0479 13.0713C47.2939 13.4229 47.417 13.8535 47.417 14.3633C47.417 15.2129 47.0771 15.8955 46.3975 16.4111C45.7178 16.9209 44.8359 17.1758 43.752 17.1758C42.9902 17.1758 42.3164 17.041 41.7305 16.7715C41.1445 16.502 40.6846 16.127 40.3506 15.6465C40.0225 15.1602 39.8584 14.6357 39.8584 14.0732H41.4844C41.5137 14.6182 41.7305 15.0518 42.1348 15.374C42.5449 15.6904 43.084 15.8486 43.752 15.8486C44.3672 15.8486 44.8594 15.7256 45.2285 15.4795C45.6035 15.2275 45.791 14.8936 45.791 14.4775ZM51.1611 8.6416C51.8818 7.75684 52.8193 7.31445 53.9736 7.31445C55.9834 7.31445 56.9971 8.44824 57.0146 10.7158V17H55.3887V10.707C55.3828 10.0215 55.2246 9.51465 54.9141 9.18652C54.6094 8.8584 54.1318 8.69434 53.4814 8.69434C52.9541 8.69434 52.4912 8.83496 52.0928 9.11621C51.6943 9.39746 51.3838 9.7666 51.1611 10.2236V17H49.5352V3.5H51.1611V8.6416Z" fill="#C5C5C5"/>
<path fill-rule="evenodd" clip-rule="evenodd" d="M63.5531 8.89343C63.6125 8.73817 63.7164 8.62018 63.842 8.56531C63.9676 8.51045 64.1046 8.52319 64.2231 8.60074L70.0001 12.3899L75.7761 8.59943C75.8348 8.56003 75.899 8.53628 75.9647 8.52957C76.0305 8.52285 76.0967 8.53329 76.1594 8.56028C76.2221 8.58728 76.2801 8.6303 76.3301 8.68686C76.38 8.74342 76.421 8.8124 76.4505 8.88983C76.4801 8.96726 76.4977 9.0516 76.5023 9.138C76.5069 9.22439 76.4985 9.31113 76.4774 9.39322C76.4563 9.4753 76.4231 9.5511 76.3796 9.61625C76.3362 9.68139 76.2833 9.7346 76.2241 9.7728L70.2241 13.7103C70.1545 13.756 70.0778 13.7798 70.0001 13.7798C69.9223 13.7798 69.8456 13.756 69.7761 13.7103L63.7761 9.7728C63.6578 9.69482 63.5679 9.55846 63.5261 9.39362C63.4843 9.22877 63.494 9.04889 63.5531 8.89343Z" fill="#C5C5C5"/>
</svg>
