<svg width="122" height="25" viewBox="0 0 122 25" fill="none" xmlns="http://www.w3.org/2000/svg">
<path d="M10.808 24V20.192H0.6V16.592L7.976 0.959999H12.376L5 16.592H10.808V10.592H14.712V16.592H16.872V20.192H14.712V24H10.808ZM28.5007 24.48C27.3274 24.48 26.2341 24.24 25.2207 23.76C24.2074 23.2693 23.3327 22.5973 22.5967 21.744C21.8714 20.8907 21.3487 19.8987 21.0287 18.768L24.7407 17.776C24.8901 18.3947 25.1621 18.928 25.5567 19.376C25.9621 19.824 26.4314 20.1707 26.9647 20.416C27.5087 20.6613 28.0687 20.784 28.6447 20.784C29.3914 20.784 30.0741 20.6027 30.6927 20.24C31.3114 19.8773 31.8021 19.392 32.1648 18.784C32.5274 18.1653 32.7087 17.4827 32.7087 16.736C32.7087 15.9893 32.5221 15.312 32.1487 14.704C31.7861 14.0853 31.2954 13.6 30.6767 13.248C30.0581 12.8853 29.3807 12.704 28.6447 12.704C27.7594 12.704 27.0234 12.864 26.4367 13.184C25.8607 13.504 25.4181 13.8453 25.1087 14.208L21.8127 13.152L22.5167 0.959999H35.0287V4.576H24.5807L26.0207 3.216L25.5087 11.696L24.8047 10.832C25.4021 10.288 26.0954 9.88267 26.8847 9.616C27.6741 9.34933 28.4367 9.216 29.1727 9.216C30.6127 9.216 31.8874 9.54667 32.9967 10.208C34.1168 10.8587 34.9914 11.7493 35.6208 12.88C36.2607 14.0107 36.5807 15.296 36.5807 16.736C36.5807 18.176 36.2074 19.4827 35.4608 20.656C34.7141 21.8187 33.7274 22.7467 32.5007 23.44C31.2847 24.1333 29.9514 24.48 28.5007 24.48ZM49.6667 24.48C48.0347 24.48 46.5947 24.1333 45.3467 23.44C44.0987 22.736 43.1227 21.76 42.4187 20.512C41.7254 19.264 41.3787 17.824 41.3787 16.192V8.768C41.3787 7.136 41.7254 5.696 42.4187 4.448C43.1227 3.2 44.0987 2.22933 45.3467 1.536C46.5947 0.831999 48.0347 0.48 49.6667 0.48C51.2987 0.48 52.7334 0.831999 53.9707 1.536C55.2187 2.22933 56.1947 3.2 56.8987 4.448C57.6027 5.696 57.9547 7.136 57.9547 8.768V16.192C57.9547 17.824 57.6027 19.264 56.8987 20.512C56.1947 21.76 55.2187 22.736 53.9707 23.44C52.7334 24.1333 51.2987 24.48 49.6667 24.48ZM49.6667 20.816C50.4774 20.816 51.2134 20.624 51.8747 20.24C52.5361 19.8453 53.0587 19.3227 53.4427 18.672C53.8267 18.0107 54.0187 17.2747 54.0187 16.464V8.48C54.0187 7.65867 53.8267 6.92267 53.4427 6.272C53.0587 5.61067 52.5361 5.088 51.8747 4.704C51.2134 4.30933 50.4774 4.112 49.6667 4.112C48.8561 4.112 48.1201 4.30933 47.4587 4.704C46.7974 5.088 46.2747 5.61067 45.8907 6.272C45.5067 6.92267 45.3147 7.65867 45.3147 8.48V16.464C45.3147 17.2747 45.5067 18.0107 45.8907 18.672C46.2747 19.3227 46.7974 19.8453 47.4587 20.24C48.1201 20.624 48.8561 20.816 49.6667 20.816ZM71.6893 24.48C70.0573 24.48 68.6173 24.1333 67.3693 23.44C66.1213 22.736 65.1453 21.76 64.4413 20.512C63.7479 19.264 63.4013 17.824 63.4013 16.192V8.768C63.4013 7.136 63.7479 5.696 64.4413 4.448C65.1453 3.2 66.1213 2.22933 67.3693 1.536C68.6173 0.831999 70.0573 0.48 71.6893 0.48C73.3213 0.48 74.7559 0.831999 75.9933 1.536C77.2413 2.22933 78.2173 3.2 78.9213 4.448C79.6253 5.696 79.9773 7.136 79.9773 8.768V16.192C79.9773 17.824 79.6253 19.264 78.9213 20.512C78.2173 21.76 77.2413 22.736 75.9933 23.44C74.7559 24.1333 73.3213 24.48 71.6893 24.48ZM71.6893 20.816C72.4999 20.816 73.2359 20.624 73.8973 20.24C74.5586 19.8453 75.0813 19.3227 75.4653 18.672C75.8493 18.0107 76.0413 17.2747 76.0413 16.464V8.48C76.0413 7.65867 75.8493 6.92267 75.4653 6.272C75.0813 5.61067 74.5586 5.088 73.8973 4.704C73.2359 4.30933 72.4999 4.112 71.6893 4.112C70.8786 4.112 70.1426 4.30933 69.4813 4.704C68.8199 5.088 68.2973 5.61067 67.9133 6.272C67.5293 6.92267 67.3373 7.65867 67.3373 8.48V16.464C67.3373 17.2747 67.5293 18.0107 67.9133 18.672C68.2973 19.3227 68.8199 19.8453 69.4813 20.24C70.1426 20.624 70.8786 20.816 71.6893 20.816ZM93.7117 24.48C92.0797 24.48 90.6397 24.1333 89.3917 23.44C88.1437 22.736 87.1677 21.76 86.4637 20.512C85.7704 19.264 85.4237 17.824 85.4237 16.192V8.768C85.4237 7.136 85.7704 5.696 86.4637 4.448C87.1677 3.2 88.1437 2.22933 89.3917 1.536C90.6397 0.831999 92.0797 0.48 93.7117 0.48C95.3437 0.48 96.7784 0.831999 98.0157 1.536C99.2637 2.22933 100.24 3.2 100.944 4.448C101.648 5.696 102 7.136 102 8.768V16.192C102 17.824 101.648 19.264 100.944 20.512C100.24 21.76 99.2637 22.736 98.0157 23.44C96.7784 24.1333 95.3437 24.48 93.7117 24.48ZM93.7117 20.816C94.5224 20.816 95.2584 20.624 95.9197 20.24C96.5811 19.8453 97.1037 19.3227 97.4877 18.672C97.8717 18.0107 98.0637 17.2747 98.0637 16.464V8.48C98.0637 7.65867 97.8717 6.92267 97.4877 6.272C97.1037 5.61067 96.5811 5.088 95.9197 4.704C95.2584 4.30933 94.5224 4.112 93.7117 4.112C92.9011 4.112 92.1651 4.30933 91.5037 4.704C90.8424 5.088 90.3197 5.61067 89.9357 6.272C89.5517 6.92267 89.3597 7.65867 89.3597 8.48V16.464C89.3597 17.2747 89.5517 18.0107 89.9357 18.672C90.3197 19.3227 90.8424 19.8453 91.5037 20.24C92.1651 20.624 92.9011 20.816 93.7117 20.816ZM112.854 19.712V13.984H107.126V10.96H112.854V5.248H115.878V10.96H121.574V13.984H115.878V19.712H112.854Z" fill="#121212"/>
</svg>
