<svg width="80" height="25" viewBox="0 0 80 25" fill="none" xmlns="http://www.w3.org/2000/svg">
<path d="M8.18 0.511999C9.684 0.511999 11.0387 0.869333 12.244 1.584C13.4493 2.288 14.3987 3.26933 15.092 4.528C15.796 5.776 16.148 7.216 16.148 8.848V15.872C16.148 17.6107 15.796 19.1307 15.092 20.432C14.3987 21.7227 13.4227 22.72 12.164 23.424C10.9053 24.128 9.43333 24.48 7.748 24.48C6.58533 24.48 5.48667 24.2827 4.452 23.888C3.41733 23.4827 2.48933 22.864 1.668 22.032L4.436 19.328C4.852 19.808 5.348 20.1867 5.924 20.464C6.51067 20.7307 7.11867 20.864 7.748 20.864C8.644 20.864 9.428 20.656 10.1 20.24C10.772 19.8133 11.2947 19.264 11.668 18.592C12.0413 17.9093 12.228 17.1787 12.228 16.4V12.576L12.916 13.344C12.2653 14.112 11.476 14.7147 10.548 15.152C9.62 15.5787 8.644 15.792 7.62 15.792C6.18 15.792 4.9 15.4613 3.78 14.8C2.67067 14.1387 1.796 13.2427 1.156 12.112C0.526667 10.9707 0.212 9.68 0.212 8.24C0.212 6.8 0.574667 5.49867 1.3 4.336C2.02533 3.16267 2.99067 2.23466 4.196 1.552C5.412 0.858665 6.74 0.511999 8.18 0.511999ZM8.18 4.192C7.43333 4.192 6.75067 4.37333 6.132 4.736C5.51333 5.09867 5.02267 5.58933 4.66 6.208C4.29733 6.816 4.116 7.49333 4.116 8.24C4.116 8.98667 4.292 9.66933 4.644 10.288C5.00667 10.9067 5.492 11.3973 6.1 11.76C6.71867 12.1227 7.40133 12.304 8.148 12.304C8.89467 12.304 9.57733 12.1227 10.196 11.76C10.8147 11.3973 11.3053 10.9067 11.668 10.288C12.0413 9.66933 12.228 8.98667 12.228 8.24C12.228 7.51467 12.0467 6.848 11.684 6.24C11.3213 5.62133 10.8307 5.12533 10.212 4.752C9.604 4.37867 8.92667 4.192 8.18 4.192ZM29.863 24.48C28.231 24.48 26.791 24.1333 25.543 23.44C24.295 22.736 23.319 21.76 22.615 20.512C21.9217 19.264 21.575 17.824 21.575 16.192V8.768C21.575 7.136 21.9217 5.696 22.615 4.448C23.319 3.2 24.295 2.22933 25.543 1.536C26.791 0.831999 28.231 0.48 29.863 0.48C31.495 0.48 32.9297 0.831999 34.167 1.536C35.415 2.22933 36.391 3.2 37.095 4.448C37.799 5.696 38.151 7.136 38.151 8.768V16.192C38.151 17.824 37.799 19.264 37.095 20.512C36.391 21.76 35.415 22.736 34.167 23.44C32.9297 24.1333 31.495 24.48 29.863 24.48ZM29.863 20.816C30.6737 20.816 31.4097 20.624 32.071 20.24C32.7323 19.8453 33.255 19.3227 33.639 18.672C34.023 18.0107 34.215 17.2747 34.215 16.464V8.48C34.215 7.65867 34.023 6.92267 33.639 6.272C33.255 5.61067 32.7323 5.088 32.071 4.704C31.4097 4.30933 30.6737 4.112 29.863 4.112C29.0523 4.112 28.3163 4.30933 27.655 4.704C26.9937 5.088 26.471 5.61067 26.087 6.272C25.703 6.92267 25.511 7.65867 25.511 8.48V16.464C25.511 17.2747 25.703 18.0107 26.087 18.672C26.471 19.3227 26.9937 19.8453 27.655 20.24C28.3163 20.624 29.0523 20.816 29.863 20.816ZM51.8855 24.48C50.2535 24.48 48.8135 24.1333 47.5655 23.44C46.3175 22.736 45.3415 21.76 44.6375 20.512C43.9442 19.264 43.5975 17.824 43.5975 16.192V8.768C43.5975 7.136 43.9442 5.696 44.6375 4.448C45.3415 3.2 46.3175 2.22933 47.5655 1.536C48.8135 0.831999 50.2535 0.48 51.8855 0.48C53.5175 0.48 54.9522 0.831999 56.1895 1.536C57.4375 2.22933 58.4135 3.2 59.1175 4.448C59.8215 5.696 60.1735 7.136 60.1735 8.768V16.192C60.1735 17.824 59.8215 19.264 59.1175 20.512C58.4135 21.76 57.4375 22.736 56.1895 23.44C54.9522 24.1333 53.5175 24.48 51.8855 24.48ZM51.8855 20.816C52.6962 20.816 53.4322 20.624 54.0935 20.24C54.7548 19.8453 55.2775 19.3227 55.6615 18.672C56.0455 18.0107 56.2375 17.2747 56.2375 16.464V8.48C56.2375 7.65867 56.0455 6.92267 55.6615 6.272C55.2775 5.61067 54.7548 5.088 54.0935 4.704C53.4322 4.30933 52.6962 4.112 51.8855 4.112C51.0748 4.112 50.3388 4.30933 49.6775 4.704C49.0162 5.088 48.4935 5.61067 48.1095 6.272C47.7255 6.92267 47.5335 7.65867 47.5335 8.48V16.464C47.5335 17.2747 47.7255 18.0107 48.1095 18.672C48.4935 19.3227 49.0162 19.8453 49.6775 20.24C50.3388 20.624 51.0748 20.816 51.8855 20.816ZM71.028 19.712V13.984H65.3V10.96H71.028V5.248H74.052V10.96H79.748V13.984H74.052V19.712H71.028Z" fill="#121212"/>
</svg>
