<svg width="97" height="29" viewBox="0 0 97 29" fill="none" xmlns="http://www.w3.org/2000/svg">
<path d="M8.68 0.511999C10.184 0.511999 11.5387 0.869333 12.744 1.584C13.9493 2.288 14.8987 3.26933 15.592 4.528C16.296 5.776 16.648 7.216 16.648 8.848V15.872C16.648 17.6107 16.296 19.1307 15.592 20.432C14.8987 21.7227 13.9227 22.72 12.664 23.424C11.4053 24.128 9.93333 24.48 8.248 24.48C7.08533 24.48 5.98667 24.2827 4.952 23.888C3.91733 23.4827 2.98933 22.864 2.168 22.032L4.936 19.328C5.352 19.808 5.848 20.1867 6.424 20.464C7.01067 20.7307 7.61867 20.864 8.248 20.864C9.144 20.864 9.928 20.656 10.6 20.24C11.272 19.8133 11.7947 19.264 12.168 18.592C12.5413 17.9093 12.728 17.1787 12.728 16.4V12.576L13.416 13.344C12.7653 14.112 11.976 14.7147 11.048 15.152C10.12 15.5787 9.144 15.792 8.12 15.792C6.68 15.792 5.4 15.4613 4.28 14.8C3.17067 14.1387 2.296 13.2427 1.656 12.112C1.02667 10.9707 0.712 9.68 0.712 8.24C0.712 6.8 1.07467 5.49867 1.8 4.336C2.52533 3.16267 3.49067 2.23466 4.696 1.552C5.912 0.858665 7.24 0.511999 8.68 0.511999ZM8.68 4.192C7.93333 4.192 7.25067 4.37333 6.632 4.736C6.01333 5.09867 5.52267 5.58933 5.16 6.208C4.79733 6.816 4.616 7.49333 4.616 8.24C4.616 8.98667 4.792 9.66933 5.144 10.288C5.50667 10.9067 5.992 11.3973 6.6 11.76C7.21867 12.1227 7.90133 12.304 8.648 12.304C9.39467 12.304 10.0773 12.1227 10.696 11.76C11.3147 11.3973 11.8053 10.9067 12.168 10.288C12.5413 9.66933 12.728 8.98667 12.728 8.24C12.728 7.51467 12.5467 6.848 12.184 6.24C11.8213 5.62133 11.3307 5.12533 10.712 4.752C10.104 4.37867 9.42667 4.192 8.68 4.192ZM29.515 0.511999C31.019 0.511999 32.3737 0.869333 33.579 1.584C34.7843 2.288 35.7337 3.26933 36.427 4.528C37.131 5.776 37.483 7.216 37.483 8.848V15.872C37.483 17.6107 37.131 19.1307 36.427 20.432C35.7337 21.7227 34.7577 22.72 33.499 23.424C32.2403 24.128 30.7683 24.48 29.083 24.48C27.9203 24.48 26.8217 24.2827 25.787 23.888C24.7523 23.4827 23.8243 22.864 23.003 22.032L25.771 19.328C26.187 19.808 26.683 20.1867 27.259 20.464C27.8457 20.7307 28.4537 20.864 29.083 20.864C29.979 20.864 30.763 20.656 31.435 20.24C32.107 19.8133 32.6297 19.264 33.003 18.592C33.3763 17.9093 33.563 17.1787 33.563 16.4V12.576L34.251 13.344C33.6003 14.112 32.811 14.7147 31.883 15.152C30.955 15.5787 29.979 15.792 28.955 15.792C27.515 15.792 26.235 15.4613 25.115 14.8C24.0057 14.1387 23.131 13.2427 22.491 12.112C21.8617 10.9707 21.547 9.68 21.547 8.24C21.547 6.8 21.9097 5.49867 22.635 4.336C23.3603 3.16267 24.3257 2.23466 25.531 1.552C26.747 0.858665 28.075 0.511999 29.515 0.511999ZM29.515 4.192C28.7683 4.192 28.0857 4.37333 27.467 4.736C26.8483 5.09867 26.3577 5.58933 25.995 6.208C25.6323 6.816 25.451 7.49333 25.451 8.24C25.451 8.98667 25.627 9.66933 25.979 10.288C26.3417 10.9067 26.827 11.3973 27.435 11.76C28.0537 12.1227 28.7363 12.304 29.483 12.304C30.2297 12.304 30.9123 12.1227 31.531 11.76C32.1497 11.3973 32.6403 10.9067 33.003 10.288C33.3763 9.66933 33.563 8.98667 33.563 8.24C33.563 7.51467 33.3817 6.848 33.019 6.24C32.6563 5.62133 32.1657 5.12533 31.547 4.752C30.939 4.37867 30.2617 4.192 29.515 4.192ZM42.4337 28.08L42.6577 26.416C43.1484 26.4587 43.5377 26.3733 43.8257 26.16C44.1137 25.9573 44.3057 25.664 44.4017 25.28C44.5084 24.9067 44.5351 24.48 44.4817 24H42.4337V19.888H46.3857V24.16C46.3857 25.5573 46.0551 26.6133 45.3937 27.328C44.7324 28.0427 43.7457 28.2933 42.4337 28.08ZM54.6005 24L62.5365 4.608H52.4725V0.959999H66.6645V4.608L58.7605 24H54.6005ZM74.655 24L72.095 21.44L92.591 0.959999L95.151 3.536L74.655 24ZM90.351 24.48C89.295 24.48 88.3297 24.224 87.455 23.712C86.591 23.1893 85.8977 22.496 85.375 21.632C84.8523 20.7573 84.591 19.7867 84.591 18.72C84.591 17.6747 84.8577 16.7147 85.391 15.84C85.9243 14.9653 86.6283 14.2667 87.503 13.744C88.3777 13.2213 89.327 12.96 90.351 12.96C91.407 12.96 92.3723 13.2213 93.247 13.744C94.1217 14.256 94.815 14.9493 95.327 15.824C95.8497 16.688 96.111 17.6533 96.111 18.72C96.111 19.7867 95.8497 20.7573 95.327 21.632C94.815 22.496 94.1217 23.1893 93.247 23.712C92.3723 24.224 91.407 24.48 90.351 24.48ZM90.351 21.184C90.7883 21.184 91.1937 21.072 91.567 20.848C91.951 20.624 92.255 20.3253 92.479 19.952C92.703 19.5787 92.815 19.168 92.815 18.72C92.815 18.272 92.703 17.8613 92.479 17.488C92.255 17.1147 91.951 16.816 91.567 16.592C91.1937 16.368 90.7883 16.256 90.351 16.256C89.903 16.256 89.4923 16.368 89.119 16.592C88.7457 16.816 88.4417 17.1147 88.207 17.488C87.983 17.8613 87.871 18.272 87.871 18.72C87.871 19.168 87.983 19.5787 88.207 19.952C88.4417 20.3253 88.7457 20.624 89.119 20.848C89.4923 21.072 89.903 21.184 90.351 21.184ZM76.895 12C75.839 12 74.8737 11.744 73.999 11.232C73.1243 10.7093 72.4257 10.016 71.903 9.152C71.391 8.27733 71.135 7.30667 71.135 6.24C71.135 5.19467 71.4017 4.23467 71.935 3.36C72.4683 2.48533 73.1723 1.78666 74.047 1.264C74.9217 0.741332 75.871 0.48 76.895 0.48C77.951 0.48 78.911 0.741332 79.775 1.264C80.6497 1.776 81.3483 2.46933 81.871 3.344C82.3937 4.208 82.655 5.17333 82.655 6.24C82.655 7.30667 82.3937 8.27733 81.871 9.152C81.3483 10.016 80.6497 10.7093 79.775 11.232C78.911 11.744 77.951 12 76.895 12ZM76.895 8.704C77.343 8.704 77.7537 8.592 78.127 8.368C78.5003 8.144 78.799 7.84533 79.023 7.472C79.247 7.09867 79.359 6.688 79.359 6.24C79.359 5.792 79.247 5.38133 79.023 5.008C78.799 4.63467 78.5003 4.336 78.127 4.112C77.7537 3.888 77.343 3.776 76.895 3.776C76.447 3.776 76.0363 3.888 75.663 4.112C75.2897 4.336 74.991 4.63467 74.767 5.008C74.543 5.38133 74.431 5.792 74.431 6.24C74.431 6.688 74.543 7.09867 74.767 7.472C74.991 7.84533 75.2897 8.144 75.663 8.368C76.0363 8.592 76.447 8.704 76.895 8.704Z" fill="#121212"/>
</svg>
