<svg width="34" height="32" viewBox="0 0 34 32" fill="none" xmlns="http://www.w3.org/2000/svg">
<path opacity="0.4" d="M18.6271 1.18938L22.3379 8.6465C22.6113 9.18678 23.1331 9.56197 23.7349 9.64534L32.07 10.8593C32.5567 10.9277 32.9985 11.1845 33.2969 11.5763C33.592 11.9632 33.7187 12.4534 33.647 12.9353C33.5886 13.3356 33.4003 13.7057 33.1119 13.9892L27.0722 19.8439C26.6305 20.2524 26.4304 20.8577 26.5371 21.4497L28.0241 29.6805C28.1825 30.6744 27.524 31.6115 26.5371 31.7999C26.1304 31.865 25.7136 31.7966 25.3469 31.6098L17.9119 27.7362C17.3602 27.4577 16.7083 27.4577 16.1566 27.7362L8.72163 31.6098C7.8081 32.0951 6.67619 31.7649 6.16775 30.8645C5.97937 30.5059 5.91269 30.0974 5.97437 29.6989L7.46136 21.4664C7.56805 20.8761 7.36634 20.2674 6.92624 19.8589L0.886613 14.0076C0.168126 13.3139 0.146454 12.1716 0.838269 11.4529C0.853273 11.4379 0.869943 11.4212 0.886613 11.4046C1.17334 11.1128 1.55009 10.9277 1.95684 10.8793L10.292 9.66369C10.8921 9.57864 11.4139 9.20679 11.6889 8.66318L15.2664 1.18938C15.5848 0.549052 16.2449 0.150516 16.9617 0.167191H17.1851C17.8069 0.242229 18.3487 0.627425 18.6271 1.18938Z" fill="#4D77FF"/>
</svg>
