<svg width="174" height="25" viewBox="0 0 174 25" fill="none" xmlns="http://www.w3.org/2000/svg">
<path d="M0.68 18.5V1.22H3.572V8.492H11.756V1.22H14.636V18.5H11.756V11.204H3.572V18.5H0.68ZM24.6123 18.86C23.3003 18.86 22.1483 18.576 21.1563 18.008C20.1643 17.44 19.3883 16.652 18.8283 15.644C18.2763 14.636 18.0003 13.476 18.0003 12.164C18.0003 10.748 18.2723 9.52 18.8163 8.48C19.3603 7.432 20.1163 6.62 21.0843 6.044C22.0523 5.468 23.1723 5.18 24.4443 5.18C25.7883 5.18 26.9283 5.496 27.8643 6.128C28.8083 6.752 29.5083 7.636 29.9643 8.78C30.4203 9.924 30.5923 11.272 30.4803 12.824H27.6123V11.768C27.6043 10.36 27.3563 9.332 26.8683 8.684C26.3803 8.036 25.6123 7.712 24.5643 7.712C23.3803 7.712 22.5003 8.08 21.9243 8.816C21.3483 9.544 21.0603 10.612 21.0603 12.02C21.0603 13.332 21.3483 14.348 21.9243 15.068C22.5003 15.788 23.3403 16.148 24.4443 16.148C25.1563 16.148 25.7683 15.992 26.2803 15.68C26.8003 15.36 27.2003 14.9 27.4803 14.3L30.3363 15.164C29.8403 16.332 29.0723 17.24 28.0323 17.888C27.0003 18.536 25.8603 18.86 24.6123 18.86ZM20.1483 12.824V10.64H29.0643V12.824H20.1483ZM37.2674 18.86C36.3314 18.86 35.5394 18.684 34.8914 18.332C34.2434 17.972 33.7514 17.496 33.4154 16.904C33.0874 16.312 32.9234 15.66 32.9234 14.948C32.9234 14.324 33.0274 13.764 33.2354 13.268C33.4434 12.764 33.7634 12.332 34.1954 11.972C34.6274 11.604 35.1874 11.304 35.8754 11.072C36.3954 10.904 37.0034 10.752 37.6994 10.616C38.4034 10.48 39.1634 10.356 39.9794 10.244C40.8034 10.124 41.6634 9.996 42.5594 9.86L41.5274 10.448C41.5354 9.552 41.3354 8.892 40.9274 8.468C40.5194 8.044 39.8314 7.832 38.8634 7.832C38.2794 7.832 37.7154 7.968 37.1714 8.24C36.6274 8.512 36.2474 8.98 36.0314 9.644L33.3914 8.816C33.7114 7.72 34.3194 6.84 35.2154 6.176C36.1194 5.512 37.3354 5.18 38.8634 5.18C40.0154 5.18 41.0274 5.368 41.8994 5.744C42.7794 6.12 43.4314 6.736 43.8554 7.592C44.0874 8.048 44.2274 8.516 44.2754 8.996C44.3234 9.468 44.3474 9.984 44.3474 10.544V18.5H41.8154V15.692L42.2354 16.148C41.6514 17.084 40.9674 17.772 40.1834 18.212C39.4074 18.644 38.4354 18.86 37.2674 18.86ZM37.8434 16.556C38.4994 16.556 39.0594 16.44 39.5234 16.208C39.9874 15.976 40.3554 15.692 40.6274 15.356C40.9074 15.02 41.0954 14.704 41.1914 14.408C41.3434 14.04 41.4274 13.62 41.4434 13.148C41.4674 12.668 41.4794 12.28 41.4794 11.984L42.3674 12.248C41.4954 12.384 40.7474 12.504 40.1234 12.608C39.4994 12.712 38.9634 12.812 38.5154 12.908C38.0674 12.996 37.6714 13.096 37.3274 13.208C36.9914 13.328 36.7074 13.468 36.4754 13.628C36.2434 13.788 36.0634 13.972 35.9354 14.18C35.8154 14.388 35.7554 14.632 35.7554 14.912C35.7554 15.232 35.8354 15.516 35.9954 15.764C36.1554 16.004 36.3874 16.196 36.6914 16.34C37.0034 16.484 37.3874 16.556 37.8434 16.556ZM48.4316 18.5V0.86H51.3236V18.5H48.4316ZM64.6021 18.5V12.26C64.6021 11.852 64.5741 11.4 64.5181 10.904C64.4621 10.408 64.3301 9.932 64.1221 9.476C63.9221 9.012 63.6181 8.632 63.2101 8.336C62.8101 8.04 62.2661 7.892 61.5781 7.892C61.2101 7.892 60.8461 7.952 60.4861 8.072C60.1261 8.192 59.7981 8.4 59.5021 8.696C59.2141 8.984 58.9821 9.384 58.8061 9.896C58.6301 10.4 58.5421 11.048 58.5421 11.84L56.8261 11.108C56.8261 10.004 57.0381 9.004 57.4621 8.108C57.8941 7.212 58.5261 6.5 59.3581 5.972C60.1901 5.436 61.2141 5.168 62.4301 5.168C63.3901 5.168 64.1821 5.328 64.8061 5.648C65.4301 5.968 65.9261 6.376 66.2941 6.872C66.6621 7.368 66.9341 7.896 67.1101 8.456C67.2861 9.016 67.3981 9.548 67.4461 10.052C67.5021 10.548 67.5301 10.952 67.5301 11.264V18.5H64.6021ZM55.6141 18.5V1.22H58.1941V10.316H58.5421V18.5H55.6141ZM78.9776 18.5C78.1216 18.66 77.2816 18.728 76.4576 18.704C75.6416 18.688 74.9096 18.54 74.2616 18.26C73.6136 17.972 73.1216 17.52 72.7856 16.904C72.4896 16.344 72.3336 15.772 72.3176 15.188C72.3016 14.604 72.2936 13.944 72.2936 13.208V1.94H75.1736V13.04C75.1736 13.56 75.1776 14.016 75.1856 14.408C75.2016 14.8 75.2856 15.12 75.4376 15.368C75.7256 15.848 76.1856 16.116 76.8176 16.172C77.4496 16.228 78.1696 16.196 78.9776 16.076V18.5ZM69.9416 7.808V5.54H78.9776V7.808H69.9416ZM83.8368 24.26L86.3328 17.408L86.3808 19.424L80.7288 5.54H83.7408L87.7488 15.812H86.9808L90.8808 5.54H93.7728L86.5488 24.26H83.8368Z" fill="#121212"/>
<path d="M103.591 18.86C101.863 18.86 100.383 18.484 99.1505 17.732C97.9185 16.972 96.9705 15.916 96.3065 14.564C95.6505 13.212 95.3225 11.644 95.3225 9.86C95.3225 8.076 95.6505 6.508 96.3065 5.156C96.9705 3.804 97.9185 2.752 99.1505 2C100.383 1.24 101.863 0.86 103.591 0.86C105.583 0.86 107.243 1.36 108.571 2.36C109.899 3.352 110.831 4.692 111.367 6.38L108.451 7.184C108.115 6.056 107.543 5.176 106.735 4.544C105.927 3.904 104.879 3.584 103.591 3.584C102.431 3.584 101.463 3.844 100.687 4.364C99.9185 4.884 99.3385 5.616 98.9465 6.56C98.5625 7.496 98.3665 8.596 98.3585 9.86C98.3585 11.124 98.5505 12.228 98.9345 13.172C99.3265 14.108 99.9105 14.836 100.687 15.356C101.463 15.876 102.431 16.136 103.591 16.136C104.879 16.136 105.927 15.816 106.735 15.176C107.543 14.536 108.115 13.656 108.451 12.536L111.367 13.34C110.831 15.028 109.899 16.372 108.571 17.372C107.243 18.364 105.583 18.86 103.591 18.86ZM118.345 18.86C117.409 18.86 116.617 18.684 115.969 18.332C115.321 17.972 114.829 17.496 114.493 16.904C114.165 16.312 114.001 15.66 114.001 14.948C114.001 14.324 114.105 13.764 114.313 13.268C114.521 12.764 114.841 12.332 115.273 11.972C115.705 11.604 116.265 11.304 116.953 11.072C117.473 10.904 118.081 10.752 118.777 10.616C119.481 10.48 120.241 10.356 121.057 10.244C121.881 10.124 122.741 9.996 123.637 9.86L122.605 10.448C122.613 9.552 122.413 8.892 122.005 8.468C121.597 8.044 120.909 7.832 119.941 7.832C119.357 7.832 118.793 7.968 118.249 8.24C117.705 8.512 117.325 8.98 117.109 9.644L114.469 8.816C114.789 7.72 115.397 6.84 116.293 6.176C117.197 5.512 118.413 5.18 119.941 5.18C121.093 5.18 122.105 5.368 122.977 5.744C123.857 6.12 124.509 6.736 124.933 7.592C125.165 8.048 125.305 8.516 125.353 8.996C125.401 9.468 125.425 9.984 125.425 10.544V18.5H122.893V15.692L123.313 16.148C122.729 17.084 122.045 17.772 121.261 18.212C120.485 18.644 119.513 18.86 118.345 18.86ZM118.921 16.556C119.577 16.556 120.137 16.44 120.601 16.208C121.065 15.976 121.433 15.692 121.705 15.356C121.985 15.02 122.173 14.704 122.269 14.408C122.421 14.04 122.505 13.62 122.521 13.148C122.545 12.668 122.557 12.28 122.557 11.984L123.445 12.248C122.573 12.384 121.825 12.504 121.201 12.608C120.577 12.712 120.041 12.812 119.593 12.908C119.145 12.996 118.749 13.096 118.405 13.208C118.069 13.328 117.785 13.468 117.553 13.628C117.321 13.788 117.141 13.972 117.013 14.18C116.893 14.388 116.833 14.632 116.833 14.912C116.833 15.232 116.913 15.516 117.073 15.764C117.233 16.004 117.465 16.196 117.769 16.34C118.081 16.484 118.465 16.556 118.921 16.556ZM129.269 18.5V5.54H131.825V8.696L131.513 8.288C131.673 7.856 131.885 7.464 132.149 7.112C132.421 6.752 132.745 6.456 133.121 6.224C133.441 6.008 133.793 5.84 134.177 5.72C134.569 5.592 134.969 5.516 135.377 5.492C135.785 5.46 136.181 5.476 136.565 5.54V8.24C136.181 8.128 135.737 8.092 135.233 8.132C134.737 8.172 134.289 8.312 133.889 8.552C133.489 8.768 133.161 9.044 132.905 9.38C132.657 9.716 132.473 10.1 132.353 10.532C132.233 10.956 132.173 11.416 132.173 11.912V18.5H129.269ZM145.233 18.86C143.921 18.86 142.769 18.576 141.777 18.008C140.785 17.44 140.009 16.652 139.449 15.644C138.897 14.636 138.621 13.476 138.621 12.164C138.621 10.748 138.893 9.52 139.437 8.48C139.981 7.432 140.737 6.62 141.705 6.044C142.673 5.468 143.793 5.18 145.065 5.18C146.409 5.18 147.549 5.496 148.485 6.128C149.429 6.752 150.129 7.636 150.585 8.78C151.041 9.924 151.213 11.272 151.101 12.824H148.233V11.768C148.225 10.36 147.977 9.332 147.489 8.684C147.001 8.036 146.233 7.712 145.185 7.712C144.001 7.712 143.121 8.08 142.545 8.816C141.969 9.544 141.681 10.612 141.681 12.02C141.681 13.332 141.969 14.348 142.545 15.068C143.121 15.788 143.961 16.148 145.065 16.148C145.777 16.148 146.389 15.992 146.901 15.68C147.421 15.36 147.821 14.9 148.101 14.3L150.957 15.164C150.461 16.332 149.693 17.24 148.653 17.888C147.621 18.536 146.481 18.86 145.233 18.86ZM140.769 12.824V10.64H149.685V12.824H140.769ZM154.738 18.5V0.86H157.63V18.5H154.738ZM163.649 24.26L166.145 17.408L166.193 19.424L160.541 5.54H163.553L167.561 15.812H166.793L170.693 5.54H173.585L166.361 24.26H163.649Z" fill="#4D77FF"/>
</svg>
