<svg width="28" height="12" viewBox="0 0 28 12" fill="none" xmlns="http://www.w3.org/2000/svg">
<path opacity="0.35" fill-rule="evenodd" clip-rule="evenodd" d="M4.08581 0.833252C2.97268 0.833252 2.53251 0.910245 2.07818 1.13034C1.69461 1.31615 1.39688 1.58582 1.19175 1.93326C0.94877 2.34479 0.86377 2.74349 0.86377 3.75177V8.24807C0.86377 9.25634 0.94877 9.65505 1.19175 10.0666C1.39688 10.414 1.69461 10.6837 2.07818 10.8695C2.53251 11.0896 2.97268 11.1666 4.08581 11.1666H20.8257C21.9389 11.1666 22.3791 11.0896 22.8334 10.8695C23.217 10.6837 23.5147 10.414 23.7198 10.0666C23.9628 9.65505 24.0478 9.25634 24.0478 8.24807V3.75177C24.0478 2.74349 23.9628 2.34479 23.7198 1.93326C23.5147 1.58582 23.217 1.31615 22.8334 1.13034C22.3791 0.910245 21.9389 0.833252 20.8257 0.833252H4.08581Z" stroke="black"/>
<path opacity="0.4" d="M25.7036 4V8C26.592 7.66122 27.1697 6.87313 27.1697 6C27.1697 5.12687 26.592 4.33878 25.7036 4Z" fill="black"/>
<path d="M4.40704 2.33325H20.505C21.1612 2.33325 21.3991 2.39514 21.639 2.51134C21.8789 2.62755 22.0671 2.79807 22.1954 3.01535C22.3237 3.23264 22.392 3.44816 22.392 4.04251V7.95733C22.392 8.55167 22.3237 8.7672 22.1954 8.98448C22.0671 9.20177 21.8789 9.37229 21.639 9.4885C21.3991 9.6047 21.1612 9.66659 20.505 9.66659H4.40704C3.75088 9.66659 3.51294 9.6047 3.27306 9.4885C3.03318 9.37229 2.84492 9.20177 2.71663 8.98448C2.58834 8.7672 2.52002 8.55167 2.52002 7.95733V4.04251C2.52002 3.44816 2.58834 3.23264 2.71663 3.01535C2.84492 2.79807 3.03318 2.62755 3.27306 2.51134C3.51294 2.39514 3.75088 2.33325 4.40704 2.33325Z" fill="black"/>
</svg>
