<svg width="20" height="12" viewBox="0 0 20 12" fill="none" xmlns="http://www.w3.org/2000/svg">
<path d="M1.67969 7.33341H2.78369C3.39341 7.33341 3.88769 7.78113 3.88769 8.33341V10.3334C3.88769 10.8857 3.39341 11.3334 2.78369 11.3334H1.67969C1.06996 11.3334 0.575684 10.8857 0.575684 10.3334V8.33341C0.575684 7.78113 1.06996 7.33341 1.67969 7.33341ZM6.83168 5.33341H7.93569C8.54541 5.33341 9.03969 5.78113 9.03969 6.33341V10.3334C9.03969 10.8857 8.54541 11.3334 7.93569 11.3334H6.83168C6.22196 11.3334 5.72768 10.8857 5.72768 10.3334V6.33341C5.72768 5.78113 6.22196 5.33341 6.83168 5.33341ZM11.9837 3.00008H13.0877C13.6974 3.00008 14.1917 3.4478 14.1917 4.00008V10.3334C14.1917 10.8857 13.6974 11.3334 13.0877 11.3334H11.9837C11.374 11.3334 10.8797 10.8857 10.8797 10.3334V4.00008C10.8797 3.4478 11.374 3.00008 11.9837 3.00008ZM17.1357 0.666748H18.2397C18.8494 0.666748 19.3437 1.11446 19.3437 1.66675V10.3334C19.3437 10.8857 18.8494 11.3334 18.2397 11.3334H17.1357C16.526 11.3334 16.0317 10.8857 16.0317 10.3334V1.66675C16.0317 1.11446 16.526 0.666748 17.1357 0.666748Z" fill="black"/>
</svg>
