<svg width="18" height="12" viewBox="0 0 18 12" fill="none" xmlns="http://www.w3.org/2000/svg">
<path d="M9.32823 2.61504C11.7843 2.61514 14.1465 3.46925 15.9266 5.00084C16.0606 5.11909 16.2748 5.1176 16.4069 4.9975L17.6882 3.82717C17.755 3.76626 17.7923 3.68375 17.7917 3.5979C17.7912 3.51205 17.7528 3.42994 17.6852 3.36974C13.0132 -0.682491 5.64251 -0.682491 0.970478 3.36974C0.902799 3.4299 0.864409 3.51198 0.863777 3.59783C0.863161 3.68368 0.900378 3.76621 0.967176 3.82717L2.24883 4.9975C2.38076 5.11778 2.59521 5.11927 2.72917 5.00084C4.50943 3.46915 6.87189 2.61504 9.32823 2.61504ZM9.32823 6.42263C10.6777 6.42255 11.979 6.8765 12.9793 7.69628C13.1146 7.81262 13.3277 7.8101 13.4596 7.6906L14.7394 6.52027C14.8068 6.45888 14.8442 6.3756 14.8433 6.28907C14.8423 6.20253 14.803 6.11996 14.7343 6.05982C11.6882 3.49541 6.97085 3.49541 3.92474 6.05982C3.85593 6.11996 3.8167 6.20257 3.81578 6.28913C3.8149 6.3757 3.85242 6.45897 3.91996 6.52027L5.19942 7.6906C5.33131 7.8101 5.54443 7.81262 5.67972 7.69628C6.67936 6.87705 7.97965 6.42313 9.32823 6.42263ZM11.7878 9.2157C11.8562 9.15491 11.8939 9.07124 11.8919 8.98446C11.89 8.89768 11.8486 8.81548 11.7774 8.75727C10.3636 7.675 8.29285 7.675 6.879 8.75727C6.80782 8.81544 6.76631 8.89761 6.76428 8.98439C6.76225 9.07117 6.79989 9.15486 6.86829 9.2157L9.08252 11.2377C9.14742 11.2971 9.23591 11.3306 9.32823 11.3306C9.42055 11.3306 9.50901 11.2971 9.57391 11.2377L11.7878 9.2157Z" fill="black"/>
</svg>
